<svg fill="#000000" xmlns="http://www.w3.org/2000/svg"  viewBox="0 0 50 50" width="50px" height="50px"><path d="M 6.84375 6 C 5.988281 6.003906 5.527344 6.019531 5.15625 6.0625 C 4.785156 6.105469 4.492188 6.230469 4.3125 6.3125 C 3.515625 6.671875 2.871094 7.304688 2.53125 8.09375 C 2.421875 8.347656 2.308594 8.785156 2.28125 9.40625 C 2.253906 10.027344 2.28125 11.003906 2.28125 12.90625 C 2.28125 14.886719 2.28125 15.882813 2.3125 16.5 C 2.34375 17.117188 2.457031 17.539063 2.5625 17.78125 C 2.933594 18.621094 3.582031 19.28125 4.46875 19.59375 C 4.84375 19.726563 5.097656 19.699219 5.59375 19.71875 C 6.089844 19.738281 6.769531 19.75 7.78125 19.75 L 14 19.75 C 13.996094 20.140625 14.007813 21.167969 14 21.40625 C 13.988281 21.835938 13.980469 22.035156 13.96875 22.09375 C 13.957031 22.152344 13.984375 22.035156 13.9375 22.125 C 13.777344 22.417969 13.496094 22.679688 13.1875 22.8125 C 13.011719 22.886719 13.121094 22.882813 12.46875 22.90625 C 11.816406 22.929688 10.574219 22.9375 8.1875 22.9375 L 3.28125 22.9375 C 2.921875 22.933594 2.585938 23.121094 2.402344 23.433594 C 2.222656 23.746094 2.222656 24.128906 2.402344 24.441406 C 2.585938 24.753906 2.921875 24.941406 3.28125 24.9375 L 8.1875 24.9375 C 10.578125 24.9375 11.828125 24.929688 12.5625 24.90625 C 13.296875 24.882813 13.714844 24.765625 13.96875 24.65625 C 14.714844 24.335938 15.335938 23.773438 15.71875 23.0625 C 15.769531 22.96875 15.890625 22.726563 15.9375 22.46875 C 15.984375 22.210938 15.988281 21.933594 16 21.46875 C 16.011719 21.09375 15.996094 19.722656 16 19.03125 C 16 19.019531 16 19.011719 16 19 C 16.03125 18.855469 16.03125 18.707031 16 18.5625 C 16 18.550781 16 18.542969 16 18.53125 C 16.003906 17.5625 16.03125 17.195313 16.03125 15.46875 C 16.03125 12.085938 16.027344 10.394531 16 9.46875 C 15.988281 9.007813 15.984375 8.726563 15.9375 8.46875 C 15.890625 8.210938 15.769531 7.933594 15.71875 7.84375 C 15.335938 7.136719 14.714844 6.601563 13.96875 6.28125 C 13.714844 6.171875 13.308594 6.058594 12.6875 6.03125 C 12.066406 6.003906 11.058594 6 9.15625 6 C 8.167969 6 7.417969 5.996094 6.84375 6 Z M 22.65625 6 C 21.796875 6.007813 21.304688 6.035156 20.90625 6.09375 C 20.507813 6.152344 20.207031 6.304688 20 6.40625 C 19.214844 6.796875 18.566406 7.472656 18.28125 8.3125 C 18.207031 8.53125 18.230469 8.609375 18.21875 8.71875 C 18.207031 8.828125 18.195313 8.925781 18.1875 9.0625 C 18.171875 9.339844 18.164063 9.691406 18.15625 10.09375 C 18.136719 10.898438 18.121094 11.917969 18.125 12.9375 C 18.128906 13.957031 18.132813 14.976563 18.15625 15.78125 C 18.167969 16.183594 18.199219 16.535156 18.21875 16.8125 C 18.226563 16.949219 18.238281 17.078125 18.25 17.1875 C 18.261719 17.296875 18.234375 17.34375 18.3125 17.5625 C 18.695313 18.648438 19.617188 19.488281 20.75 19.71875 C 20.933594 19.757813 20.972656 19.746094 21.0625 19.75 C 21.152344 19.753906 21.25 19.746094 21.375 19.75 C 21.625 19.757813 21.953125 19.777344 22.34375 19.78125 C 23.125 19.789063 24.132813 19.785156 25.21875 19.78125 C 27.363281 19.773438 28.394531 19.773438 29.125 19.6875 C 29.855469 19.601563 30.433594 19.234375 30.75 18.96875 C 31.117188 18.660156 31.328125 18.371094 31.53125 17.96875 C 31.644531 17.746094 31.785156 17.285156 31.8125 16.65625 C 31.839844 16.027344 31.84375 15.007813 31.84375 12.9375 C 31.84375 10.867188 31.84375 9.820313 31.8125 9.1875 C 31.78125 8.554688 31.640625 8.136719 31.53125 7.90625 C 31.328125 7.46875 31.085938 7.140625 30.6875 6.8125 C 30.335938 6.523438 29.773438 6.179688 29 6.09375 C 28.226563 6.007813 27.113281 6 24.9375 6 C 23.953125 6 23.230469 5.996094 22.65625 6 Z M 38.375 6 C 37.734375 6.011719 37.261719 6.050781 36.875 6.09375 C 36.101563 6.179688 35.507813 6.523438 35.15625 6.8125 C 34.753906 7.140625 34.515625 7.46875 34.3125 7.90625 C 34.203125 8.140625 34.0625 8.558594 34.03125 9.1875 C 34 9.816406 34 10.847656 34 12.90625 C 34 14.964844 34.003906 16 34.03125 16.625 C 34.058594 17.25 34.203125 17.671875 34.3125 17.90625 C 34.515625 18.34375 34.722656 18.65625 35.09375 18.96875 C 35.421875 19.246094 35.945313 19.558594 36.5625 19.65625 C 37.179688 19.753906 37.925781 19.765625 39.40625 19.78125 L 45.6875 19.8125 C 45.6875 19.882813 45.6875 19.992188 45.6875 20.0625 C 45.675781 20.695313 45.671875 21.238281 45.65625 21.625 C 45.648438 21.816406 45.632813 21.960938 45.625 22.0625 C 45.507813 22.382813 45.390625 22.539063 44.96875 22.75 C 44.683594 22.890625 44.875 22.875 44.25 22.90625 C 43.625 22.9375 42.398438 22.9375 39.9375 22.9375 L 35 22.9375 C 34.640625 22.933594 34.304688 23.121094 34.121094 23.433594 C 33.941406 23.746094 33.941406 24.128906 34.121094 24.441406 C 34.304688 24.753906 34.640625 24.941406 35 24.9375 L 39.9375 24.9375 C 42.402344 24.9375 43.625 24.945313 44.375 24.90625 C 45.125 24.867188 45.59375 24.671875 45.875 24.53125 C 46.644531 24.148438 47.253906 23.5 47.53125 22.71875 C 47.648438 22.386719 47.613281 22.394531 47.625 22.25 C 47.636719 22.105469 47.648438 21.925781 47.65625 21.71875 C 47.675781 21.300781 47.675781 20.738281 47.6875 20.09375 C 47.691406 19.816406 47.683594 19.402344 47.6875 19.09375 C 47.6875 19.082031 47.6875 19.074219 47.6875 19.0625 C 47.734375 18.886719 47.734375 18.707031 47.6875 18.53125 C 47.6875 18.519531 47.6875 18.511719 47.6875 18.5 C 47.699219 17.515625 47.71875 16.5625 47.71875 15.46875 C 47.71875 13.804688 47.710938 12.164063 47.6875 10.875 C 47.675781 10.230469 47.675781 9.667969 47.65625 9.25 C 47.648438 9.042969 47.636719 8.863281 47.625 8.71875 C 47.613281 8.574219 47.644531 8.574219 47.53125 8.25 C 47.25 7.449219 46.648438 6.761719 45.875 6.375 C 45.597656 6.234375 45.132813 6.070313 44.5 6.03125 C 43.867188 5.992188 42.878906 6 40.90625 6 C 39.816406 6 39.015625 5.988281 38.375 6 Z M 6.875 8 C 7.433594 7.996094 8.164063 8 9.15625 8 C 11.058594 8 12.066406 8.007813 12.59375 8.03125 C 13.121094 8.054688 13.019531 8.023438 13.1875 8.09375 C 13.492188 8.222656 13.777344 8.519531 13.9375 8.8125 C 13.960938 8.859375 13.96875 8.832031 13.96875 8.8125 C 13.980469 8.867188 13.988281 9.101563 14 9.53125 C 14.023438 10.386719 14.03125 12.085938 14.03125 15.46875 C 14.03125 16.769531 14.03125 16.898438 14.03125 17.75 L 7.78125 17.75 C 6.777344 17.75 6.125 17.734375 5.6875 17.71875 C 5.25 17.703125 5.015625 17.648438 5.125 17.6875 C 4.988281 17.640625 4.527344 17.246094 4.40625 16.96875 C 4.300781 16.726563 4.304688 16.90625 4.28125 16.40625 C 4.257813 15.90625 4.28125 14.886719 4.28125 12.90625 C 4.28125 11.003906 4.257813 9.996094 4.28125 9.46875 C 4.304688 8.941406 4.304688 9.074219 4.375 8.90625 C 4.539063 8.519531 4.746094 8.296875 5.125 8.125 C 5.308594 8.042969 5.214844 8.054688 5.40625 8.03125 C 5.597656 8.007813 6.035156 8.003906 6.875 8 Z M 22.65625 8 C 23.210938 7.996094 23.945313 8 24.9375 8 C 27.113281 8 28.253906 8.003906 28.78125 8.0625 C 29.308594 8.121094 29.113281 8.074219 29.4375 8.34375 C 29.421875 8.332031 29.683594 8.679688 29.71875 8.75 C 29.828125 8.984375 29.789063 8.761719 29.8125 9.28125 C 29.835938 9.800781 29.84375 10.867188 29.84375 12.9375 C 29.84375 15.007813 29.835938 16.046875 29.8125 16.5625 C 29.789063 17.078125 29.859375 16.84375 29.75 17.0625 C 29.707031 17.144531 29.402344 17.46875 29.4375 17.4375 C 29.097656 17.726563 29.375 17.632813 28.90625 17.6875 C 28.4375 17.742188 27.367188 17.773438 25.21875 17.78125 C 24.140625 17.785156 23.109375 17.789063 22.34375 17.78125 C 21.960938 17.777344 21.667969 17.757813 21.4375 17.75 C 21.324219 17.746094 21.214844 17.753906 21.15625 17.75 C 20.753906 17.667969 20.367188 17.328125 20.21875 16.90625 C 20.210938 16.847656 20.226563 16.789063 20.21875 16.6875 C 20.203125 16.453125 20.167969 16.105469 20.15625 15.71875 C 20.132813 14.941406 20.128906 13.945313 20.125 12.9375 C 20.121094 11.929688 20.136719 10.933594 20.15625 10.15625 C 20.164063 9.769531 20.171875 9.421875 20.1875 9.1875 C 20.195313 9.082031 20.214844 8.996094 20.21875 8.9375 C 20.21875 8.929688 20.21875 8.914063 20.21875 8.90625 C 20.347656 8.558594 20.503906 8.371094 20.875 8.1875 C 21.089844 8.078125 21.035156 8.089844 21.21875 8.0625 C 21.402344 8.035156 21.820313 8.007813 22.65625 8 Z M 38.375 8 C 38.988281 7.992188 39.820313 8 40.90625 8 C 42.878906 8 43.882813 8 44.375 8.03125 C 44.867188 8.0625 44.691406 8.050781 44.96875 8.1875 C 45.34375 8.375 45.472656 8.503906 45.59375 8.78125 C 45.597656 8.800781 45.621094 8.855469 45.625 8.90625 C 45.632813 9.007813 45.648438 9.152344 45.65625 9.34375 C 45.671875 9.730469 45.675781 10.269531 45.6875 10.90625 C 45.710938 12.175781 45.71875 13.8125 45.71875 15.46875 C 45.71875 16.3125 45.695313 17.019531 45.6875 17.8125 L 39.4375 17.78125 C 37.960938 17.765625 37.195313 17.738281 36.875 17.6875 C 36.554688 17.636719 36.710938 17.695313 36.40625 17.4375 C 36.4375 17.464844 36.15625 17.132813 36.125 17.0625 C 36.019531 16.835938 36.054688 17.046875 36.03125 16.53125 C 36.007813 16.015625 36 14.964844 36 12.90625 C 36 10.847656 36.007813 9.796875 36.03125 9.28125 C 36.054688 8.765625 36.015625 8.980469 36.125 8.75 C 36.160156 8.679688 36.453125 8.332031 36.4375 8.34375 C 36.761719 8.074219 36.566406 8.121094 37.09375 8.0625 C 37.359375 8.03125 37.761719 8.007813 38.375 8 Z M 12.6875 30.1875 L 8.78125 30.21875 C 7.023438 30.222656 6.035156 30.226563 5.40625 30.25 C 4.777344 30.273438 4.398438 30.3125 4.09375 30.4375 C 3.328125 30.746094 2.699219 31.3125 2.34375 32.03125 C 2.226563 32.269531 2.066406 32.738281 2.03125 33.375 C 1.996094 34.011719 2 35.011719 2 37.0625 C 2 39.285156 1.988281 40.378906 2.0625 41.125 C 2.136719 41.871094 2.464844 42.417969 2.71875 42.75 C 3.234375 43.425781 3.933594 43.769531 4.71875 43.90625 C 4.996094 43.953125 5.039063 43.929688 5.28125 43.9375 C 5.523438 43.945313 5.847656 43.964844 6.21875 43.96875 C 6.964844 43.980469 7.945313 43.972656 8.96875 43.96875 L 12.65625 43.9375 C 13.015625 43.941406 13.351563 43.753906 13.535156 43.441406 C 13.714844 43.128906 13.714844 42.746094 13.535156 42.433594 C 13.351563 42.121094 13.015625 41.933594 12.65625 41.9375 L 8.9375 41.96875 C 7.925781 41.972656 6.980469 41.980469 6.25 41.96875 C 5.886719 41.964844 5.566406 41.945313 5.34375 41.9375 C 5.121094 41.929688 4.882813 41.90625 5.0625 41.9375 C 4.804688 41.894531 4.335938 41.5625 4.3125 41.53125 C 4.050781 41.1875 4.113281 41.449219 4.0625 40.9375 C 4.011719 40.425781 4 39.285156 4 37.0625 C 4 35.011719 4.003906 33.976563 4.03125 33.46875 C 4.058594 32.960938 4.035156 33.179688 4.15625 32.9375 C 4.332031 32.582031 4.429688 32.449219 4.84375 32.28125 C 4.894531 32.261719 4.941406 32.238281 5.5 32.21875 C 6.058594 32.199219 7.027344 32.222656 8.78125 32.21875 L 12.71875 32.1875 C 13.269531 32.179688 13.710938 31.722656 13.703125 31.171875 C 13.695313 30.621094 13.238281 30.179688 12.6875 30.1875 Z M 20.1875 30.1875 C 19.554688 30.199219 19.105469 30.238281 18.71875 30.28125 C 17.949219 30.367188 17.351563 30.707031 17 31 C 16.605469 31.324219 16.359375 31.65625 16.15625 32.09375 C 16.046875 32.324219 15.90625 32.777344 15.875 33.40625 C 15.84375 34.035156 15.875 35.035156 15.875 37.09375 C 15.875 39.066406 15.847656 40.117188 15.875 40.75 C 15.902344 41.382813 16.011719 41.785156 16.125 42.03125 C 16.5625 42.996094 17.46875 43.722656 18.5 43.90625 C 18.769531 43.953125 18.835938 43.929688 19.09375 43.9375 C 19.351563 43.945313 19.703125 43.964844 20.09375 43.96875 C 20.878906 43.980469 21.875 43.972656 22.9375 43.96875 C 24.785156 43.960938 25.742188 43.964844 26.34375 43.9375 C 26.945313 43.910156 27.382813 43.769531 27.625 43.65625 C 28.34375 43.320313 28.902344 42.789063 29.25 42.09375 C 29.390625 41.8125 29.476563 41.402344 29.5 40.75 C 29.523438 40.097656 29.53125 39.027344 29.53125 37.09375 C 29.53125 35.027344 29.527344 33.980469 29.5 33.34375 C 29.488281 33.027344 29.457031 32.820313 29.40625 32.59375 C 29.355469 32.367188 29.273438 32.167969 29.21875 32.0625 C 28.847656 31.371094 28.238281 30.816406 27.53125 30.5 C 27.289063 30.394531 26.859375 30.25 26.25 30.21875 C 25.640625 30.1875 24.675781 30.1875 22.71875 30.1875 C 21.640625 30.1875 20.820313 30.175781 20.1875 30.1875 Z M 37.34375 30.1875 C 36.039063 30.191406 35.320313 30.21875 34.84375 30.25 C 34.367188 30.28125 34.019531 30.359375 33.8125 30.4375 C 33.015625 30.734375 32.378906 31.324219 31.96875 32.09375 C 31.894531 32.234375 31.816406 32.492188 31.78125 32.71875 C 31.746094 32.945313 31.734375 33.164063 31.71875 33.53125 C 31.691406 34.265625 31.667969 35.507813 31.65625 37.8125 C 31.648438 39.167969 31.625 40.457031 31.625 41.40625 C 31.625 41.882813 31.652344 42.28125 31.65625 42.5625 C 31.65625 42.703125 31.652344 42.816406 31.65625 42.90625 C 31.65625 42.949219 31.652344 42.988281 31.65625 43.03125 C 31.65625 43.050781 31.652344 43.058594 31.65625 43.09375 C 31.65625 43.109375 31.648438 43.121094 31.65625 43.15625 C 31.664063 43.191406 31.71875 43.34375 31.71875 43.34375 C 31.882813 43.835938 32.398438 44.125 32.902344 44 C 33.410156 43.878906 33.738281 43.390625 33.65625 42.875 C 33.65625 42.871094 33.65625 42.851563 33.65625 42.84375 C 33.65625 42.777344 33.65625 42.667969 33.65625 42.53125 C 33.652344 42.261719 33.625 41.878906 33.625 41.40625 C 33.625 40.464844 33.648438 39.199219 33.65625 37.84375 C 33.667969 35.542969 33.664063 34.289063 33.6875 33.625 C 33.699219 33.292969 33.738281 33.101563 33.75 33.03125 C 33.90625 32.738281 34.285156 32.402344 34.53125 32.3125 C 34.679688 32.257813 34.628906 32.277344 35 32.25 C 35.371094 32.222656 36.050781 32.191406 37.34375 32.1875 C 37.707031 32.1875 38.347656 32.1875 38.8125 32.1875 L 38.8125 43 C 38.808594 43.359375 38.996094 43.695313 39.308594 43.878906 C 39.621094 44.058594 40.003906 44.058594 40.316406 43.878906 C 40.628906 43.695313 40.816406 43.359375 40.8125 43 L 40.8125 32.1875 L 46 32.1875 L 45.96875 37.0625 L 45.96875 43 C 45.964844 43.359375 46.152344 43.695313 46.464844 43.878906 C 46.777344 44.058594 47.160156 44.058594 47.472656 43.878906 C 47.785156 43.695313 47.972656 43.359375 47.96875 43 L 47.96875 37.0625 L 48 31.1875 L 48 30.1875 L 40.8125 30.1875 C 39.328125 30.1875 38.214844 30.183594 37.34375 30.1875 Z M 22.71875 32.1875 C 24.675781 32.1875 25.664063 32.195313 26.15625 32.21875 C 26.648438 32.242188 26.476563 32.234375 26.71875 32.34375 C 27.117188 32.523438 27.246094 32.640625 27.4375 33 C 27.476563 33.074219 27.464844 33.007813 27.46875 33.03125 C 27.472656 33.054688 27.488281 33.171875 27.5 33.4375 C 27.523438 33.972656 27.53125 35.027344 27.53125 37.09375 C 27.53125 39.023438 27.523438 40.082031 27.5 40.65625 C 27.476563 41.230469 27.480469 41.167969 27.46875 41.1875 C 27.351563 41.425781 27.027344 41.730469 26.78125 41.84375 C 26.628906 41.914063 26.753906 41.914063 26.25 41.9375 C 25.746094 41.960938 24.78125 41.960938 22.9375 41.96875 C 21.886719 41.972656 20.894531 41.980469 20.125 41.96875 C 19.742188 41.964844 19.394531 41.945313 19.15625 41.9375 C 18.917969 41.929688 18.695313 41.910156 18.84375 41.9375 C 18.378906 41.855469 18.1875 41.699219 17.96875 41.21875 C 17.902344 41.070313 17.898438 41.199219 17.875 40.65625 C 17.851563 40.113281 17.875 39.066406 17.875 37.09375 C 17.875 35.035156 17.851563 34.015625 17.875 33.5 C 17.898438 32.984375 17.890625 33.167969 18 32.9375 L 17.96875 32.9375 C 18 32.867188 18.289063 32.523438 18.28125 32.53125 C 18.605469 32.265625 18.410156 32.339844 18.9375 32.28125 C 19.464844 32.222656 20.5625 32.1875 22.71875 32.1875 Z"/></svg>